<svg width="528" height="388" viewBox="0 0 528 388" fill="none" xmlns="http://www.w3.org/2000/svg">
<g clip-path="url(#clip0_19_824)">
<path d="M499.06 388L499.661 386.887C491.598 382.522 481.564 377.09 476.323 368.175C471.157 359.387 471.041 347.454 476.021 337.032C480.259 328.162 488.044 320.216 498.533 314.051C500.602 312.835 502.774 311.683 504.875 310.568C509.952 307.875 515.202 305.089 519.532 301.137C525.494 295.694 530.005 286.56 526.643 278.423C525.537 275.826 523.726 273.592 521.415 271.974C519.105 270.355 516.387 269.418 513.571 269.268L513.5 270.532C516.08 270.669 518.569 271.527 520.687 273.009C522.804 274.491 524.464 276.537 525.478 278.916C528.603 286.476 524.316 295.056 518.68 300.202C514.469 304.046 509.291 306.793 504.283 309.45C502.171 310.571 499.986 311.73 497.893 312.96C487.185 319.252 479.227 327.387 474.88 336.486C469.722 347.282 469.857 359.671 475.234 368.817C480.653 378.035 490.859 383.561 499.06 388Z" fill="#F1F1F1"/>
<path d="M505.558 275.939C511.668 275.939 516.621 273.53 516.621 270.56C516.621 267.589 511.668 265.18 505.558 265.18C499.448 265.18 494.495 267.589 494.495 270.56C494.495 273.53 499.448 275.939 505.558 275.939Z" fill="#F1F1F1"/>
<path d="M496.707 311.378C502.817 311.378 507.77 308.97 507.77 305.999C507.77 303.028 502.817 300.62 496.707 300.62C490.597 300.62 485.644 303.028 485.644 305.999C485.644 308.97 490.597 311.378 496.707 311.378Z" fill="#F1F1F1"/>
<path d="M516.937 317.074C523.047 317.074 528 314.666 528 311.695C528 308.724 523.047 306.316 516.937 306.316C510.827 306.316 505.874 308.724 505.874 311.695C505.874 314.666 510.827 317.074 516.937 317.074Z" fill="#F1F1F1"/>
<path d="M485.328 346.818C491.438 346.818 496.391 344.41 496.391 341.439C496.391 338.468 491.438 336.06 485.328 336.06C479.218 336.06 474.265 338.468 474.265 341.439C474.265 344.41 479.218 346.818 485.328 346.818Z" fill="#F1F1F1"/>
<path d="M463.202 346.818C469.312 346.818 474.265 344.41 474.265 341.439C474.265 338.468 469.312 336.06 463.202 336.06C457.092 336.06 452.139 338.468 452.139 341.439C452.139 344.41 457.092 346.818 463.202 346.818Z" fill="#F1F1F1"/>
<path d="M86.7887 278.128H47.534C46.4711 278.127 45.452 277.703 44.7003 276.951C43.9487 276.199 43.5258 275.178 43.5245 274.114V144.634C43.5258 143.57 43.9487 142.55 44.7003 141.798C45.452 141.045 46.4711 140.622 47.534 140.621H86.7887C87.8517 140.622 88.8708 141.045 89.6224 141.798C90.3741 142.55 90.7969 143.57 90.7982 144.634V274.114C90.7969 275.178 90.3741 276.199 89.6224 276.951C88.8708 277.703 87.8517 278.127 86.7887 278.128Z" fill="#6EE7C1"/>
<path d="M158.375 278.128H119.12C118.057 278.127 117.038 277.703 116.286 276.951C115.534 276.199 115.112 275.178 115.11 274.114V93.2536C115.112 92.1895 115.534 91.1694 116.286 90.417C117.038 89.6646 118.057 89.2414 119.12 89.2402H158.375C159.437 89.2414 160.457 89.6646 161.208 90.417C161.96 91.1694 162.383 92.1895 162.384 93.2536V274.114C162.383 275.178 161.96 276.199 161.208 276.951C160.457 277.703 159.437 278.127 158.375 278.128Z" fill="#6EE7C1"/>
<path d="M229.96 278.128H190.706C189.643 278.127 188.624 277.703 187.872 276.951C187.12 276.199 186.697 275.178 186.696 274.114V144.634C186.697 143.57 187.12 142.55 187.872 141.798C188.624 141.045 189.643 140.622 190.706 140.621H229.96C231.023 140.622 232.042 141.045 232.794 141.798C233.546 142.55 233.969 143.57 233.97 144.634V274.114C233.969 275.178 233.546 276.199 232.794 276.951C232.042 277.703 231.023 278.127 229.96 278.128Z" fill="#6EE7C1"/>
<path d="M301.546 278.128H262.292C261.253 278.15 260.248 277.76 259.496 277.041C258.744 276.323 258.308 275.336 258.282 274.296V72.79C258.308 71.7502 258.744 70.7631 259.496 70.0449C260.248 69.3267 261.253 68.936 262.292 68.9583H301.546C302.585 68.936 303.59 69.3267 304.342 70.0449C305.093 70.7631 305.53 71.7502 305.556 72.79V274.296C305.53 275.336 305.093 276.323 304.342 277.041C303.59 277.76 302.585 278.15 301.546 278.128Z" fill="#6EE7C1"/>
<path d="M373.132 278.128H333.877C332.814 278.127 331.795 277.703 331.044 276.951C330.292 276.199 329.869 275.178 329.868 274.114V36.4644C329.869 35.4003 330.292 34.3802 331.044 33.6278C331.795 32.8754 332.814 32.4522 333.877 32.451H373.132C374.195 32.4522 375.214 32.8754 375.966 33.6278C376.717 34.3802 377.14 35.4003 377.142 36.4644V274.114C377.14 275.178 376.717 276.199 375.966 276.951C375.214 277.703 374.195 278.127 373.132 278.128Z" fill="#6EE7C1"/>
<path d="M67.1614 124.395C71.6372 124.395 75.2655 120.763 75.2655 116.283C75.2655 111.802 71.6372 108.17 67.1614 108.17C62.6857 108.17 59.0573 111.802 59.0573 116.283C59.0573 120.763 62.6857 124.395 67.1614 124.395Z" fill="#3F3D56"/>
<path d="M138.747 71.6625C143.223 71.6625 146.851 68.0303 146.851 63.5498C146.851 59.0692 143.223 55.437 138.747 55.437C134.271 55.437 130.643 59.0692 130.643 63.5498C130.643 68.0303 134.271 71.6625 138.747 71.6625Z" fill="#3F3D56"/>
<path d="M210.333 124.395C214.809 124.395 218.437 120.763 218.437 116.283C218.437 111.802 214.809 108.17 210.333 108.17C205.857 108.17 202.229 111.802 202.229 116.283C202.229 120.763 205.857 124.395 210.333 124.395Z" fill="#3F3D56"/>
<path d="M281.919 45.9722C286.395 45.9722 290.023 42.34 290.023 37.8595C290.023 33.3789 286.395 29.7467 281.919 29.7467C277.443 29.7467 273.815 33.3789 273.815 37.8595C273.815 42.34 277.443 45.9722 281.919 45.9722Z" fill="#3F3D56"/>
<path d="M353.505 16.2255C357.98 16.2255 361.609 12.5933 361.609 8.11274C361.609 3.6322 357.98 0 353.505 0C349.029 0 345.401 3.6322 345.401 8.11274C345.401 12.5933 349.029 16.2255 353.505 16.2255Z" fill="#3F3D56"/>
<path d="M419.131 279.635H0.632182C0.464519 279.635 0.303722 279.568 0.185167 279.449C0.066611 279.33 7.62939e-06 279.17 7.62939e-06 279.002C7.62939e-06 278.834 0.066611 278.673 0.185167 278.554C0.303722 278.436 0.464519 278.369 0.632182 278.369H419.131C419.299 278.369 419.46 278.436 419.578 278.554C419.697 278.673 419.764 278.834 419.764 279.002C419.764 279.17 419.697 279.33 419.578 279.449C419.46 279.568 419.299 279.635 419.131 279.635Z" fill="#CBCBCB"/>
<path d="M523.44 387.852H318.616C318.448 387.852 318.287 387.785 318.169 387.667C318.05 387.548 317.983 387.387 317.983 387.219C317.983 387.051 318.05 386.89 318.169 386.772C318.287 386.653 318.448 386.586 318.616 386.586H523.44C523.608 386.586 523.768 386.653 523.887 386.772C524.006 386.89 524.072 387.051 524.072 387.219C524.072 387.387 524.006 387.548 523.887 387.667C523.768 387.785 523.608 387.852 523.44 387.852Z" fill="#CBCBCB"/>
<path d="M391.907 269.348C392.427 268.831 392.827 268.206 393.079 267.517C393.332 266.829 393.43 266.093 393.368 265.362C393.306 264.631 393.084 263.922 392.719 263.286C392.353 262.65 391.853 262.102 391.253 261.681L393.738 250.486L387.311 247.315L384.023 263.173C383.382 264.229 383.151 265.483 383.373 266.699C383.594 267.914 384.253 269.005 385.225 269.766C386.197 270.528 387.414 270.905 388.645 270.828C389.877 270.751 391.037 270.225 391.907 269.348Z" fill="#FFB7B7"/>
<path d="M462.194 269.594C462.673 269.038 463.023 268.384 463.222 267.677C463.42 266.971 463.462 266.23 463.343 265.506C463.224 264.782 462.949 264.093 462.535 263.487C462.122 262.881 461.58 262.374 460.95 262L462.563 250.646L455.909 247.982L453.857 264.048C453.3 265.15 453.166 266.419 453.481 267.613C453.796 268.807 454.537 269.845 455.565 270.528C456.593 271.212 457.835 271.494 459.057 271.322C460.279 271.15 461.395 270.535 462.194 269.594L462.194 269.594Z" fill="#FFB7B7"/>
<path d="M412.09 381.026L405.536 381.025L402.418 355.718L412.091 355.718L412.09 381.026Z" fill="#FFB7B7"/>
<path d="M413.762 387.386L392.628 387.385V387.118C392.628 384.934 393.495 382.839 395.038 381.295C396.58 379.751 398.672 378.883 400.854 378.883H400.854L413.762 378.884L413.762 387.386Z" fill="#2F2E41"/>
<path d="M434.01 381.026L427.455 381.025L424.337 355.718L434.011 355.718L434.01 381.026Z" fill="#FFB7B7"/>
<path d="M435.681 387.386L414.547 387.385V387.118C414.547 384.934 415.414 382.839 416.957 381.295C418.499 379.751 420.592 378.883 422.773 378.883H422.774L435.681 378.884L435.681 387.386Z" fill="#2F2E41"/>
<path d="M447.206 168.104L454.274 165.551C454.274 165.551 457.274 166.189 457.274 174.333C457.274 182.476 465.24 258.427 465.24 258.427L451.298 262.102L443.418 190.044L447.206 168.104Z" fill="#2F2E41"/>
<path d="M399.979 168.104L392.911 165.551C392.911 165.551 389.912 166.189 389.912 174.333C389.912 182.476 381.945 258.427 381.945 258.427L395.887 262.102L403.768 190.044L399.979 168.104Z" fill="#2F2E41"/>
<path d="M400.069 254.727L398.138 311.78L402.415 374.89L413.435 375.145L415.039 316.274L424.127 286.839L423.21 373.598L435.689 373.448L443.418 313.759C443.418 313.759 453.624 264.361 447.964 254.727L421.898 246.05L400.069 254.727Z" fill="#2F2E41"/>
<path d="M400.282 247.852L399.653 261.577C399.653 261.577 408.447 265.958 423.906 263.289C439.364 260.621 449.639 262.38 449.639 262.38L448.452 244.884L400.282 247.852Z" fill="#E5E5E5"/>
<path d="M392.63 165.754L412.957 156.837L414.169 152.167L433.944 152.741L434.798 157.512L454.274 165.551L445.693 195.42L446.573 216.432L457.274 254.727C457.274 254.727 448.248 262.4 426.565 259.099L422.823 251.552L420.534 259.533C420.534 259.533 401.52 266.535 396.251 257.42L400.069 191.575L392.63 165.754Z" fill="#2F2E41"/>
<path d="M423.877 147.78C431.129 147.78 437.007 141.895 437.007 134.635C437.007 127.375 431.129 121.49 423.877 121.49C416.625 121.49 410.746 127.375 410.746 134.635C410.746 141.895 416.625 147.78 423.877 147.78Z" fill="#FFB7B7"/>
<path d="M439.478 129.542C439.244 128.472 438.792 127.462 438.152 126.574C437.896 124.118 437.078 121.754 435.76 119.667C435.244 118.689 434.511 117.842 433.618 117.192C432.595 116.602 431.427 116.31 430.247 116.35C430.033 116.347 429.648 116.412 429.302 116.428C429.08 116.359 428.856 116.297 428.632 116.24C428.501 115.948 428.241 115.098 428.169 115.156L427.191 115.934C426.777 115.862 426.362 115.806 425.945 115.762C425.793 115.328 425.641 114.894 425.489 114.46C425.242 114.848 425.026 115.255 424.843 115.676C424.427 115.656 424.012 115.649 423.596 115.655L422.765 114.855C422.716 115.078 422.603 115.282 422.44 115.442C422.277 115.601 422.071 115.71 421.847 115.755C421.465 115.794 421.084 115.845 420.704 115.906C420.673 115.906 420.642 115.906 420.612 115.906C418.564 115.854 416.361 115.763 414.649 116.888C413.848 117.438 413.196 118.179 412.752 119.044C412.542 119.187 412.332 119.328 412.128 119.48C411.441 119.948 410.846 120.539 410.372 121.222C410.027 121.812 409.766 122.446 409.595 123.107C408.942 125.097 408.639 127.186 408.7 129.28C408.77 131.388 409.565 133.408 410.95 134.997C411.828 135.942 412.944 136.639 413.823 137.582C415.634 139.525 415.973 142.233 417.522 144.289C419.159 146.462 422.149 147.893 424.774 148.303C426.352 148.541 427.962 148.464 429.511 148.078C431.06 147.691 432.517 147.002 433.798 146.05C434.414 145.621 434.936 145.072 435.335 144.437C436.246 142.859 435.86 140.876 436.198 139.085C436.832 135.729 440.032 132.912 439.478 129.542Z" fill="#2F2E41"/>
<path d="M66.7291 116.79L65.9743 115.775L138.748 61.5378L210.102 114.818L282.433 36.2023L282.562 36.1491L352.759 7.14616L353.241 8.31631L283.173 37.2655L210.259 116.514L138.747 63.1162L66.7291 116.79Z" fill="#3F3D56"/>
</g>
<defs>
<clipPath id="clip0_19_824">
<rect width="528" height="388" fill="white"/>
</clipPath>
</defs>
</svg>
