<svg width="1500" height="204" viewBox="0 0 1500 204" fill="none" xmlns="http://www.w3.org/2000/svg">
<path d="M1500 24.0002L1450 36.0377C1400 47.6252 1300 72.3752 1200 60.0002C1100 47.6252 1000 0.375176 900 0.0376673C800 0.375159 700 47.6252 600 83.9626C500 119.625 400 144.375 300 132C200 119.625 100 72.3751 50.0002 47.9626L0.000177196 24.0001L0.00016146 204L50.0002 204C100 204 200 204 300 204C400 204 500 204 600 204C700 204 800 204 900 204C1000 204 1100 204 1200 204C1300 204 1400 204 1450 204L1500 204L1500 24.0002Z" fill="#57D9D9"/>
</svg>
